#define wpc_shape_from_scripts_btn_refresh_width 32
#define wpc_shape_from_scripts_btn_refresh_height 32
static unsigned char wpc_shape_from_scripts_btn_refresh_bits[] = {
 0x00, 0x00, 0x00, 0x00, 0x00, 0x00, 0x00, 0x00, 0x00, 0x00, 0x00, 0x00,
 0x00, 0x40, 0x00, 0x00, 0x00, 0xC0, 0x00, 0x00, 0x00, 0xC0, 0x01, 0x00,
 0x00, 0xFF, 0xF3, 0x00, 0x80, 0xFF, 0xF7, 0x01, 0xC0, 0xFF, 0xF3, 0x03,
 0xC0, 0xC3, 0xC1, 0x03, 0xC0, 0xC1, 0x80, 0x03, 0xC0, 0x41, 0x80, 0x03,
 0xC0, 0x01, 0x80, 0x03, 0xC0, 0x01, 0x80, 0x03, 0xC0, 0x01, 0x80, 0x03,
 0xC0, 0x01, 0x80, 0x03, 0xC0, 0x01, 0x80, 0x03, 0xC0, 0x01, 0x80, 0x03,
 0xC0, 0x01, 0x80, 0x03, 0xC0, 0x01, 0x80, 0x03, 0xC0, 0x01, 0x81, 0x03,
 0xC0, 0x81, 0x81, 0x03, 0xC0, 0xC3, 0xC1, 0x03, 0xC0, 0xE7, 0xFF, 0x03,
 0x80, 0xF7, 0xFF, 0x01, 0x00, 0xE7, 0xFF, 0x00, 0x00, 0xC0, 0x01, 0x00,
 0x00, 0x80, 0x01, 0x00, 0x00, 0x00, 0x01, 0x00, 0x00, 0x00, 0x00, 0x00,
 0x00, 0x00, 0x00, 0x00, 0x00, 0x00, 0x00, 0x00 };
