STARTFONT 2.1
FONT "6x11"
SIZE 10 100 100
FONTBOUNDINGBOX 5 10 0 -3
COMMENT "Generated by fontforge, http://fontforge.sourceforge.net"
COMMENT ""
COMMENT "6x11_latin5.bdf --"
COMMENT ""
COMMENT "Font source for 6x11 latin-5 font."
COMMENT ""
COMMENT "Copyright (c) 2001-2005 Bjorn Gustavsson"
COMMENT ""
COMMENT "See the file "license.terms" for information on usage and redistribution"
COMMENT "of this file, and for a DISCLAIMER OF ALL WARRANTIES."
COMMENT ""
COMMENT "$Id$"
COMMENT ""
STARTPROPERTIES 3
FOUNDRY "Wings3D"
CHARSET_REGISTRY "ISO8859"
CHARSET_ENCODING "9"
ENDPROPERTIES
CHARS 6
STARTCHAR Gbreve
ENCODING 208
SWIDTH 1000 0
DWIDTH 6 0
BBX 5 10 0 0
BITMAP
48
30
00
70
88
80
80
98
88
70
ENDCHAR
STARTCHAR Idotaccent
ENCODING 221
SWIDTH 1000 0
DWIDTH 4 0
BBX 3 9 0 0
BITMAP
40
00
E0
40
40
40
40
40
E0
ENDCHAR
STARTCHAR Scedilla
ENCODING 222
SWIDTH 1000 0
DWIDTH 6 0
BBX 5 10 0 -3
BITMAP
70
88
80
70
08
88
70
20
10
60
ENDCHAR
STARTCHAR gbreve
ENCODING 240
SWIDTH 1000 0
DWIDTH 6 0
BBX 5 10 0 -2
BITMAP
88
70
00
78
88
88
88
78
08
70
ENDCHAR
STARTCHAR dotlessi
ENCODING 253
SWIDTH 1000 0
DWIDTH 2 0
BBX 1 5 0 0
BITMAP
80
80
80
80
80
ENDCHAR
STARTCHAR scedilla
ENCODING 254
SWIDTH 1000 0
DWIDTH 6 0
BBX 4 8 0 -3
BITMAP
70
80
60
10
F0
60
30
E0
ENDCHAR
ENDFONT
