STARTFONT 2.1
FONT "7x14"
SIZE 10 100 100
FONTBOUNDINGBOX 6 13 0 -3
COMMENT "Generated by fontforge, http://fontforge.sourceforge.net"
COMMENT ""
COMMENT "7x14_latin5.bdf --"
COMMENT ""
COMMENT "Font source for 7x14 latin-5 font."
COMMENT ""
COMMENT "Copyright (c) 2001-2005 Bjorn Gustavsson"
COMMENT ""
COMMENT "See the file "license.terms" for information on usage and redistribution"
COMMENT "of this file, and for a DISCLAIMER OF ALL WARRANTIES."
COMMENT ""
COMMENT "$Id$"
COMMENT ""
STARTPROPERTIES 4
FOUNDRY "Wings3D"
CHARSET_REGISTRY "ISO8859"
CHARSET_ENCODING "9"
CHARSET_COLLECTIONS "ASCII ISO8859-9 ISO8859-9"
ENDPROPERTIES
CHARS 6
STARTCHAR Gbreve
ENCODING 208
DWIDTH 7 0
BBX 6 13 0 0
BITMAP
48
30
00
78
84
84
80
80
9C
84
84
8C
74
ENDCHAR
STARTCHAR Idotaccent
ENCODING 221
DWIDTH 4 0
BBX 3 13 0 0
BITMAP
40
40
00
E0
40
40
40
40
40
40
40
40
E0
ENDCHAR
STARTCHAR Scedilla
ENCODING 222
DWIDTH 7 0
BBX 6 13 0 -3
BITMAP
78
84
84
80
60
18
04
84
84
78
30
18
70
ENDCHAR
STARTCHAR gbreve
ENCODING 240
DWIDTH 7 0
BBX 6 13 0 -3
BITMAP
48
30
00
7C
84
84
84
84
84
7C
04
04
F8
ENDCHAR
STARTCHAR dotlessi
ENCODING 253
DWIDTH 3 0
BBX 1 7 0 0
BITMAP
80
80
80
80
80
80
80
ENDCHAR
STARTCHAR scedilla
ENCODING 254
DWIDTH 7 0
BBX 6 10 0 -3
BITMAP
78
84
40
30
08
84
78
30
18
70
ENDCHAR
ENDFONT
