STARTFONT 2.1
FONT -Efont-Biwidth-Medium-R-Normal--24-240-75-75-P-120-ISO10646-1
SIZE 22 75 75
FONTBOUNDINGBOX 16 16 0 -2
STARTPROPERTIES 18
COPYRIGHT "(c) Copyright 2000-2003 /efont/ The Electronic Font Open Laboratory."
FOUNDRY "Efont"
FAMILY_NAME "Biwidth"
WEIGHT_NAME "Bold"
SLANT "R"
SETWIDTH_NAME "Normal"
ADD_STYLE_NAME ""
PIXEL_SIZE 22
POINT_SIZE 160
RESOLUTION_X 75
RESOLUTION_Y 75
AVERAGE_WIDTH 80
CHARSET_REGISTRY "ISO10646"
CHARSET_ENCODING "1"
_MULE_BASELINE_OFFSET -3
FONT_ASCENT 14
FONT_DESCENT 2
DEFAULT_CHAR 0
ENDPROPERTIES
CHARS 1
STARTCHAR char0
ENCODING 0
SWIDTH 500 0
DWIDTH 24 0
BBX 24 24 0 -2
BITMAP 
100000
000000
000000
000000
000000
000000
000000
000000
000000
000000
000000
000000
000000
000000
000000
000000
000000
000000
000000
000000
000000
000000
000000
000001
ENDCHAR
ENDFONT
