STARTFONT 2.1
FONT -Adobe-Helvetica-Medium-R-Normal--11-80-100-100-P-56-ISO10646-1
SIZE 8 100 100
FONTBOUNDINGBOX 6 14 0 0
STARTPROPERTIES 26
FOUNDRY "Adobe"
FAMILY_NAME "Helvetica"
WEIGHT_NAME "Medium"
SLANT "R"
SETWIDTH_NAME "Normal"
ADD_STYLE_NAME ""
PIXEL_SIZE 11
POINT_SIZE 80
RESOLUTION_X 100
RESOLUTION_Y 100
SPACING "P"
AVERAGE_WIDTH 56
CHARSET_REGISTRY "ISO10646"
CHARSET_ENCODING "1"
CAP_HEIGHT 8
X_HEIGHT 6
FONT_ASCENT 10
FONT_DESCENT 2
FACE_NAME "Helvetica"
NOTICE "Helvetica is a trademark of Linotype-Hell AG and/or its subsidiaries."
_DEC_DEVICE_FONTNAMES "PS=Helvetica"
DEFAULT_CHAR 0
RELATIVE_SETWIDTH 50
RELATIVE_WEIGHT 50
FULL_NAME "Helvetica"
_GBDFED_INFO "Edited with gbdfed 1.5."
ENDPROPERTIES
CHARS 1
STARTCHAR char0
ENCODING 0
SWIDTH 540 0
DWIDTH 6 0
BBX 6 14 0 0
BITMAP
FC
FC
FC
FC
FC
FC
FC
FC
FC
FC
FC
FC
FC
FC
ENDCHAR
ENDFONT
