STARTFONT 2.1
FONT -Adobe-Helvetica-Medium-R-Normal--20-140-100-100-P-100-ISO10646-1
SIZE 14 100 100
FONTBOUNDINGBOX 12 22 0 0
STARTPROPERTIES 26
FOUNDRY "Adobe"
FAMILY_NAME "Helvetica"
WEIGHT_NAME "Medium"
SLANT "R"
SETWIDTH_NAME "Normal"
ADD_STYLE_NAME ""
PIXEL_SIZE 20
POINT_SIZE 140
RESOLUTION_X 100
RESOLUTION_Y 100
SPACING "P"
AVERAGE_WIDTH 100
CHARSET_REGISTRY "ISO10646"
CHARSET_ENCODING "1"
CAP_HEIGHT 14
X_HEIGHT 10
FONT_ASCENT 16
FONT_DESCENT 4
FACE_NAME "Helvetica"
NOTICE "Helvetica is a trademark of Linotype-Hell AG and/or its subsidiaries."
_DEC_DEVICE_FONTNAMES "PS=Helvetica"
DEFAULT_CHAR 0
RELATIVE_SETWIDTH 50
RELATIVE_WEIGHT 50
FULL_NAME "Helvetica"
_GBDFED_INFO "Edited with gbdfed 1.5."
ENDPROPERTIES
CHARS 1
STARTCHAR char0
ENCODING 0
SWIDTH 617 0
DWIDTH 12 0
BBX 12 22 0 0
BITMAP
FFF0
FFF0
FFF0
FFF0
FFF0
FFF0
FFF0
FFF0
FFF0
FFF0
FFF0
FFF0
FFF0
FFF0
FFF0
FFF0
FFF0
FFF0
FFF0
FFF0
FFF0
FFF0
ENDCHAR
ENDFONT
