STARTFONT 2.1
FONT -wenquanyi-wenquanyi bitmap song-medium-r-normal--16-160-75-75-P-80-iso10646-1
SIZE 16 75 75
FONTBOUNDINGBOX 16 19 0 -4
STARTPROPERTIES 21
FONT_ASCENT 14
FONT_DESCENT 4
FONT_NAME "WenQuanYi Bitmap Song"
FAMILY_NAME "WenQuanYi Bitmap Song"
FOUNDRY "WenQuanYi"
FONT_VERSION "000.998"
WEIGHT_NAME "Medium"
SETWIDTH_NAME "Normal"
PIXEL_SIZE 16
POINT_SIZE 160
DEFAULT_CHAR 0
RESOLUTION_X 75
RESOLUTION_Y 75
RESOLUTION 75
SPACING "P"
UNDERLINE_POSITION -2
UNDERLINE_THICKNESS 1
QUAD_WIDTH 16
CHARSET_REGISTRY "ISO10646"
CHARSET_ENCODING "-1"
CHARSET_COLLECTIONS "ASCII ISO8859-5 GB2312.1980 BIG5-0 KSC5601.1989-0 JISX0208.1997 ISO10646-1"
ENDPROPERTIES
CHARS 1
STARTCHAR char0
ENCODING 0
SWIDTH 1000 0
DWIDTH 16 0
BBX 15 16 0 -2
BITMAP
0000
0000
0000
FFF8
8008
A028
9048
8888
8508
8208
8508
8888
9048
A028
8008
FFF8
ENDCHAR
ENDFONT
